<?xml version="1.0" standalone="no"?>
<!DOCTYPE svg PUBLIC "-//W3C//DTD SVG 20010904//EN"
 "http://www.w3.org/TR/2001/REC-SVG-20010904/DTD/svg10.dtd">
<svg version="1.0" xmlns="http://www.w3.org/2000/svg"
 width="161.000000pt" height="126.000000pt" viewBox="0 0 161.000000 126.000000"
 preserveAspectRatio="xMidYMid meet">
<metadata>
Created by potrace 1.14, written by Peter Selinger 2001-2017
</metadata>
<g transform="translate(0.000000,126.000000) scale(0.100000,-0.100000)"
fill="#000000" stroke="none">
<path d="M422 1208 c-9 -9 -12 -80 -12 -260 l0 -248 -70 -35 c-61 -31 -79 -35
-145 -35 -117 0 -115 3 -115 -154 0 -143 7 -165 50 -151 19 6 20 14 20 116 l0
109 63 0 c48 0 76 7 125 30 35 17 65 30 67 30 2 0 5 -12 7 -27 l3 -28 494 -3
c356 -1 498 1 507 9 11 9 14 72 14 325 0 300 -1 314 -19 324 -30 15 -973 14
-989 -2z m928 -323 l0 -265 -435 0 c-419 0 -435 1 -435 19 0 10 7 24 15 31 8
7 15 18 15 25 0 7 -7 18 -15 25 -12 10 -15 47 -15 215 0 111 3 205 7 208 3 4
199 7 435 7 l428 0 0 -265z"/>
<path d="M137 966 c-112 -41 -139 -168 -52 -245 46 -40 93 -48 150 -26 85 32
121 134 73 204 -46 68 -105 90 -171 67z"/>
<path d="M880 521 c-58 -6 -75 -26 -50 -56 16 -19 180 -21 198 -3 14 14 16 44
3 52 -16 10 -94 14 -151 7z"/>
<path d="M764 389 c-41 -12 -91 -69 -99 -113 -13 -69 37 -151 100 -164 30 -6
30 -6 -15 -17 -47 -12 -62 -34 -40 -60 18 -21 182 -21 200 0 22 26 7 49 -40
62 -25 6 -35 12 -23 12 31 1 90 56 103 96 24 73 -25 164 -98 185 -42 11 -46
11 -88 -1z"/>
<path d="M1063 381 c-130 -60 -103 -249 39 -276 50 -9 121 23 148 67 75 123
-56 269 -187 209z"/>
<path d="M1370 377 c-106 -56 -106 -198 0 -254 24 -13 54 -23 67 -23 74 0 144
69 145 144 1 60 -27 106 -82 134 -56 28 -76 28 -130 -1z"/>
<path d="M120 215 l0 -35 115 0 115 0 0 35 0 35 -115 0 -115 0 0 -35z"/>
<path d="M1010 55 l0 -35 115 0 115 0 0 35 0 35 -115 0 -115 0 0 -35z"/>
</g>
</svg>
