<?xml version="1.0" standalone="no"?>
<!DOCTYPE svg PUBLIC "-//W3C//DTD SVG 20010904//EN"
 "http://www.w3.org/TR/2001/REC-SVG-20010904/DTD/svg10.dtd">
<svg version="1.0" xmlns="http://www.w3.org/2000/svg"
 width="977.000000pt" height="766.000000pt" viewBox="0 0 977.000000 766.000000"
 preserveAspectRatio="xMidYMid meet">
<metadata>
Created by potrace 1.14, written by Peter Selinger 2001-2017
</metadata>
<g transform="translate(0.000000,766.000000) scale(0.100000,-0.100000)"
fill="#000000" stroke="none">
<path d="M2625 7388 c-45 -16 -90 -53 -117 -95 l-23 -38 -5 -1499 -5 -1499
-415 -223 -415 -223 -485 -1 c-466 0 -487 -1 -530 -21 -56 -25 -86 -53 -113
-104 -22 -40 -22 -41 -22 -805 0 -765 0 -765 22 -805 79 -146 260 -169 365
-46 20 23 41 62 47 86 7 30 11 239 11 644 l0 600 383 3 c328 3 386 5 412 19
17 9 46 19 65 23 19 3 177 83 352 176 174 94 319 170 322 170 3 0 6 -57 6
-127 0 -108 3 -133 21 -170 25 -51 76 -96 128 -112 50 -14 5828 -16 5881 -1
47 13 106 63 133 113 l22 42 0 1870 0 1870 -22 41 c-25 47 -73 91 -120 111
-27 11 -524 13 -2950 12 -2008 0 -2927 -4 -2948 -11z m5595 -2023 l0 -1595
-2650 0 -2650 0 0 108 0 108 57 40 c73 50 103 104 103 186 0 88 -43 158 -122
199 l-38 19 0 1265 0 1265 2650 0 2650 0 0 -1595z"/>
<path d="M920 5916 c-90 -20 -161 -46 -238 -87 -264 -140 -436 -391 -474 -692
-50 -398 199 -799 581 -937 122 -44 246 -64 362 -56 334 21 614 207 764 505
129 259 115 596 -36 847 -122 202 -324 351 -555 409 -79 21 -119 25 -223 24
-69 -1 -151 -7 -181 -13z"/>
<path d="M5095 3175 c-81 -29 -145 -124 -145 -216 0 -53 48 -139 95 -171 66
-46 116 -49 638 -46 476 3 483 3 524 25 105 57 152 184 104 288 -23 51 -89
111 -138 124 -24 7 -215 11 -538 11 -405 -1 -508 -4 -540 -15z"/>
<path d="M4761 2399 c-91 -15 -232 -67 -316 -117 -96 -56 -254 -209 -303 -294
-92 -157 -132 -300 -132 -477 0 -243 86 -454 256 -625 174 -175 393 -266 646
-266 415 0 765 275 874 686 27 102 25 321 -4 429 -92 341 -374 600 -717 660
-95 16 -219 18 -304 4z"/>
<path d="M6663 2396 c-292 -56 -529 -237 -654 -501 -59 -126 -78 -202 -86
-340 -10 -195 39 -372 148 -534 162 -244 411 -384 701 -398 287 -14 516 78
709 285 116 124 193 271 225 431 25 126 16 317 -21 431 -119 375 -443 623
-830 636 -76 2 -146 -1 -192 -10z"/>
<path d="M8556 2395 c-436 -91 -736 -448 -736 -878 0 -253 94 -473 276 -648
177 -169 379 -249 625 -249 252 0 453 84 634 265 192 192 276 409 262 680 -11
203 -80 375 -215 534 -106 125 -290 238 -457 282 -105 27 -294 34 -389 14z"/>
<path d="M740 1300 l0 -220 690 0 690 0 0 220 0 220 -690 0 -690 0 0 -220z"/>
<path d="M4376 565 c-49 -17 -103 -68 -127 -120 -48 -103 -1 -231 104 -288 41
-22 48 -22 524 -25 309 -2 504 1 540 7 79 15 131 53 166 120 46 93 32 178 -42
252 -28 29 -61 51 -86 58 -64 17 -1028 14 -1079 -4z"/>
<path d="M6150 350 l0 -220 690 0 690 0 0 220 0 220 -690 0 -690 0 0 -220z"/>
<path d="M8169 542 c-70 -37 -111 -100 -117 -180 -3 -48 1 -66 25 -112 18 -34
45 -66 72 -85 l43 -30 548 0 548 0 43 30 c27 19 54 51 72 85 24 46 28 64 25
112 -6 80 -47 143 -117 180 l-53 28 -518 0 -518 0 -53 -28z"/>
</g>
</svg>
